<svg width="373" height="167" viewBox="0 0 373 167" fill="none" xmlns="http://www.w3.org/2000/svg">
<g clip-path="url(#clip0_2305_29)">
<g opacity="0.91" filter="url(#filter0_d_2305_29)">
<path d="M317.788 127.867C196.465 21.5742 114.184 -2.42571 61.4205 1.37375C8.69232 5.17064 -14.8311 36.7532 -18.5997 42.342C-18.8828 42.7618 -18.9949 43.204 -18.9893 43.8094L-17.0819 248.99C-16.3893 323.5 15.1833 392.943 63.5791 436.244C111.946 479.518 177.093 496.679 245.14 466.763C315.219 435.954 379.206 385.872 407.059 304.518C416.852 275.915 417.387 251.696 412.423 231.19C407.458 210.677 396.972 193.815 384.625 179.957C372.275 166.096 358.076 155.258 345.711 146.798C340.866 143.483 336.312 140.54 332.257 137.919C331.136 137.194 330.052 136.493 329.011 135.817C324.232 132.71 320.31 130.076 317.788 127.867Z" stroke="#4F4F4F" stroke-width="2"/>
</g>
<g opacity="0.91" filter="url(#filter1_d_2305_29)">
<path d="M300.447 127.115C57.6278 -85.623 -29.7041 30.3274 -37.4288 41.7829C-37.8512 42.4092 -37.9963 43.0633 -37.9893 43.8187L-36.0819 248.999C-34.6917 398.544 90.6375 527.867 227.543 467.679C297.772 436.804 362.03 386.552 390.005 304.842C429.397 189.785 320.11 144.342 300.447 127.115Z" fill="#6FCF97"/>
</g>
</g>
<defs>
<filter id="filter0_d_2305_29" x="-55.9558" y="-35.9663" width="549.293" height="595.581" filterUnits="userSpaceOnUse" color-interpolation-filters="sRGB">
<feFlood flood-opacity="0" result="BackgroundImageFix"/>
<feColorMatrix in="SourceAlpha" type="matrix" values="0 0 0 0 0 0 0 0 0 0 0 0 0 0 0 0 0 0 127 0" result="hardAlpha"/>
<feOffset dx="20.4354" dy="20.4354"/>
<feGaussianBlur stdDeviation="28.2009"/>
<feColorMatrix type="matrix" values="0 0 0 0 0 0 0 0 0 0 0 0 0 0 0 0 0 0 0.04 0"/>
<feBlend mode="normal" in2="BackgroundImageFix" result="effect1_dropShadow_2305_29"/>
<feBlend mode="normal" in="SourceGraphic" in2="effect1_dropShadow_2305_29" result="shape"/>
</filter>
<filter id="filter1_d_2305_29" x="-73.9558" y="-35.9663" width="549.293" height="595.581" filterUnits="userSpaceOnUse" color-interpolation-filters="sRGB">
<feFlood flood-opacity="0" result="BackgroundImageFix"/>
<feColorMatrix in="SourceAlpha" type="matrix" values="0 0 0 0 0 0 0 0 0 0 0 0 0 0 0 0 0 0 127 0" result="hardAlpha"/>
<feOffset dx="20.4354" dy="20.4354"/>
<feGaussianBlur stdDeviation="28.2009"/>
<feColorMatrix type="matrix" values="0 0 0 0 0 0 0 0 0 0 0 0 0 0 0 0 0 0 0.04 0"/>
<feBlend mode="normal" in2="BackgroundImageFix" result="effect1_dropShadow_2305_29"/>
<feBlend mode="normal" in="SourceGraphic" in2="effect1_dropShadow_2305_29" result="shape"/>
</filter>
<clipPath id="clip0_2305_29">
<rect width="373" height="167" fill="white"/>
</clipPath>
</defs>
</svg>
